<?xml version="1.0" encoding="UTF-8"?><svg id="Layer_2" xmlns="http://www.w3.org/2000/svg" viewBox="0 0 56 48.67"><defs><style>.cls-1{fill:#fff;}.cls-2{fill:#3a3b3a;}.cls-3{fill:#dc7350;}</style></defs><g id="Layer_1-2"><g><g><path class="cls-2" d="M0,34.35c0-10.4,8.18-15.79,29.35-16.9-.55-3.35-3.71-4.83-8.91-4.83-3.9,0-7.8,1.3-13.38,3.9L1.49,6.13C8.55,2.22,15.79,0,23.59,0c13.19,0,21.73,6.5,21.73,21.73v25.82h-13l-1.12-4.83h-.37c-4.55,3.34-10.03,5.94-15.79,5.94-9.66-.01-15.05-6.69-15.05-14.32Z"/><path class="cls-1" d="M6.27,37.05c0-4.2,3.22-7.14,7.7-7.14s7.7,2.94,7.7,7.14-3.22,7-7.7,7-7.7-2.8-7.7-7Z"/><path class="cls-3" d="M36.47,11.92c0-4.2,3.22-7.14,7.7-7.14s7.7,2.94,7.7,7.14-3.22,7-7.7,7-7.7-2.81-7.7-7Z"/></g><path class="cls-2" d="M53.42,2.56c.26,0,.39-.17,.39-.36,0-.18-.13-.33-.39-.33h-.27v.7h.27Zm-1-1.25h1.15c.59,0,1.04,.27,1.04,.85,0,.3-.15,.56-.45,.7l.53,1h-.77l-.39-.77h-.38v.77h-.73V1.32Zm2.88,1.29c0-1.2-.76-1.97-1.85-1.97s-1.86,.77-1.86,1.97,.77,1.97,1.86,1.97,1.85-.77,1.85-1.97Zm-4.41,0c0-1.52,1.15-2.6,2.56-2.6s2.55,1.08,2.55,2.6-1.15,2.6-2.55,2.6-2.56-1.09-2.56-2.6Z"/></g></g></svg>